<svg width="69" height="33" viewBox="0 0 69 33" fill="none" xmlns="http://www.w3.org/2000/svg">
<path d="M0.147727 13V1.36364H4.60227C5.44318 1.36364 6.14205 1.49621 6.69886 1.76136C7.25947 2.02273 7.67803 2.38068 7.95455 2.83523C8.23485 3.28977 8.375 3.80492 8.375 4.38068C8.375 4.85417 8.28409 5.25947 8.10227 5.59659C7.92045 5.92992 7.67614 6.20076 7.36932 6.40909C7.0625 6.61742 6.7197 6.76705 6.34091 6.85795V6.97159C6.75379 6.99432 7.14962 7.12121 7.52841 7.35227C7.91098 7.57955 8.22348 7.90151 8.46591 8.31818C8.70833 8.73485 8.82955 9.23864 8.82955 9.82955C8.82955 10.4318 8.68371 10.9735 8.39205 11.4545C8.10038 11.9318 7.66099 12.3087 7.07386 12.5852C6.48674 12.8617 5.74811 13 4.85795 13H0.147727ZM2.25568 11.2386H4.52273C5.28788 11.2386 5.83902 11.0928 6.17614 10.8011C6.51705 10.5057 6.6875 10.1269 6.6875 9.66477C6.6875 9.32008 6.60227 9.00947 6.43182 8.73295C6.26136 8.45265 6.01894 8.23295 5.70455 8.07386C5.39015 7.91098 5.01515 7.82955 4.57955 7.82955H2.25568V11.2386ZM2.25568 6.3125H4.34091C4.70455 6.3125 5.0322 6.24621 5.32386 6.11364C5.61553 5.97727 5.8447 5.78598 6.01136 5.53977C6.18182 5.28977 6.26705 4.99432 6.26705 4.65341C6.26705 4.20265 6.10795 3.83144 5.78977 3.53977C5.47538 3.24811 5.00758 3.10227 4.38636 3.10227H2.25568V6.3125ZM16.1349 9.32955V4.27273H18.1918V13H16.1974V11.4489H16.1065C15.9096 11.9375 15.5857 12.3371 15.1349 12.6477C14.688 12.9583 14.1368 13.1136 13.4815 13.1136C12.9096 13.1136 12.4039 12.9867 11.9645 12.733C11.5289 12.4754 11.188 12.1023 10.9418 11.6136C10.6955 11.1212 10.5724 10.5265 10.5724 9.82955V4.27273H12.6293V9.51136C12.6293 10.0644 12.7808 10.5038 13.0838 10.8295C13.3868 11.1553 13.7846 11.3182 14.277 11.3182C14.58 11.3182 14.8736 11.2443 15.1577 11.0966C15.4418 10.9489 15.6747 10.7292 15.8565 10.4375C16.0421 10.142 16.1349 9.77273 16.1349 9.32955ZM27.2045 6.57955L25.3295 6.78409C25.2765 6.5947 25.1837 6.41667 25.0511 6.25C24.9223 6.08333 24.7481 5.94886 24.5284 5.84659C24.3087 5.74432 24.0398 5.69318 23.7216 5.69318C23.2936 5.69318 22.9337 5.78598 22.642 5.97159C22.3542 6.1572 22.2121 6.39773 22.2159 6.69318C22.2121 6.94697 22.3049 7.15341 22.4943 7.3125C22.6875 7.47159 23.0057 7.60227 23.4489 7.70455L24.9375 8.02273C25.7633 8.20076 26.3769 8.48295 26.7784 8.86932C27.1837 9.25568 27.3883 9.76136 27.392 10.3864C27.3883 10.9356 27.2273 11.4205 26.9091 11.8409C26.5947 12.2576 26.1572 12.5833 25.5966 12.8182C25.036 13.053 24.392 13.1705 23.6648 13.1705C22.5966 13.1705 21.7367 12.947 21.0852 12.5C20.4337 12.0492 20.0455 11.4223 19.9205 10.6193L21.9261 10.4261C22.017 10.8201 22.2102 11.1174 22.5057 11.3182C22.8011 11.5189 23.1856 11.6193 23.6591 11.6193C24.1477 11.6193 24.5398 11.5189 24.8352 11.3182C25.1345 11.1174 25.2841 10.8693 25.2841 10.5739C25.2841 10.3239 25.1875 10.1174 24.9943 9.95455C24.8049 9.79167 24.5095 9.66667 24.108 9.57955L22.6193 9.26705C21.7822 9.0928 21.1629 8.79924 20.7614 8.38636C20.3598 7.9697 20.161 7.44318 20.1648 6.80682C20.161 6.26894 20.3068 5.80303 20.6023 5.40909C20.9015 5.01136 21.3163 4.70455 21.8466 4.48864C22.3807 4.26894 22.9962 4.15909 23.6932 4.15909C24.7159 4.15909 25.5208 4.37689 26.108 4.8125C26.6989 5.24811 27.0644 5.83712 27.2045 6.57955ZM29.0881 13V4.27273H31.1449V13H29.0881ZM30.1222 3.03409C29.7964 3.03409 29.5161 2.92614 29.2812 2.71023C29.0464 2.49053 28.929 2.22727 28.929 1.92045C28.929 1.60985 29.0464 1.34659 29.2812 1.13068C29.5161 0.910984 29.7964 0.801136 30.1222 0.801136C30.4517 0.801136 30.732 0.910984 30.9631 1.13068C31.1979 1.34659 31.3153 1.60985 31.3153 1.92045C31.3153 2.22727 31.1979 2.49053 30.9631 2.71023C30.732 2.92614 30.4517 3.03409 30.1222 3.03409ZM35.3168 7.88636V13H33.2599V4.27273H35.2259V5.75568H35.3281C35.5289 5.26705 35.849 4.87879 36.2884 4.59091C36.7315 4.30303 37.2789 4.15909 37.9304 4.15909C38.5327 4.15909 39.0573 4.28788 39.5043 4.54545C39.955 4.80303 40.3035 5.17614 40.5497 5.66477C40.7997 6.15341 40.9228 6.74621 40.919 7.44318V13H38.8622V7.76136C38.8622 7.17803 38.7107 6.72159 38.4077 6.39205C38.1084 6.0625 37.6937 5.89773 37.1634 5.89773C36.8035 5.89773 36.4834 5.97727 36.2031 6.13636C35.9266 6.29167 35.7088 6.51705 35.5497 6.8125C35.3944 7.10795 35.3168 7.46591 35.3168 7.88636ZM46.8736 13.1705C45.9986 13.1705 45.2429 12.9886 44.6065 12.625C43.974 12.2576 43.4872 11.7386 43.1463 11.0682C42.8054 10.3939 42.6349 9.60038 42.6349 8.6875C42.6349 7.78977 42.8054 7.00189 43.1463 6.32386C43.491 5.64205 43.9721 5.11174 44.5895 4.73295C45.2069 4.35038 45.9323 4.15909 46.7656 4.15909C47.3035 4.15909 47.8111 4.24621 48.2884 4.42045C48.7694 4.59091 49.1937 4.85606 49.5611 5.21591C49.9323 5.57576 50.224 6.03409 50.4361 6.59091C50.6482 7.14394 50.7543 7.80303 50.7543 8.56818V9.19886H43.6009V7.8125H48.7827C48.7789 7.41856 48.6937 7.06818 48.527 6.76136C48.3603 6.45076 48.1274 6.20644 47.8281 6.02841C47.5327 5.85038 47.188 5.76136 46.794 5.76136C46.3736 5.76136 46.0043 5.86364 45.6861 6.06818C45.3679 6.26894 45.1198 6.53409 44.9418 6.86364C44.7675 7.18939 44.6785 7.54735 44.6747 7.9375V9.14773C44.6747 9.6553 44.7675 10.0909 44.9531 10.4545C45.1387 10.8144 45.3982 11.0909 45.7315 11.2841C46.0649 11.4735 46.455 11.5682 46.902 11.5682C47.2012 11.5682 47.4721 11.5265 47.7145 11.4432C47.9569 11.3561 48.1671 11.2292 48.3452 11.0625C48.5232 10.8958 48.6577 10.6894 48.7486 10.4432L50.669 10.6591C50.5478 11.1667 50.3168 11.6098 49.9759 11.9886C49.6387 12.3636 49.2069 12.6553 48.6804 12.8636C48.1539 13.0682 47.5516 13.1705 46.8736 13.1705ZM59.392 6.57955L57.517 6.78409C57.464 6.5947 57.3712 6.41667 57.2386 6.25C57.1098 6.08333 56.9356 5.94886 56.7159 5.84659C56.4962 5.74432 56.2273 5.69318 55.9091 5.69318C55.4811 5.69318 55.1212 5.78598 54.8295 5.97159C54.5417 6.1572 54.3996 6.39773 54.4034 6.69318C54.3996 6.94697 54.4924 7.15341 54.6818 7.3125C54.875 7.47159 55.1932 7.60227 55.6364 7.70455L57.125 8.02273C57.9508 8.20076 58.5644 8.48295 58.9659 8.86932C59.3712 9.25568 59.5758 9.76136 59.5795 10.3864C59.5758 10.9356 59.4148 11.4205 59.0966 11.8409C58.7822 12.2576 58.3447 12.5833 57.7841 12.8182C57.2235 13.053 56.5795 13.1705 55.8523 13.1705C54.7841 13.1705 53.9242 12.947 53.2727 12.5C52.6212 12.0492 52.233 11.4223 52.108 10.6193L54.1136 10.4261C54.2045 10.8201 54.3977 11.1174 54.6932 11.3182C54.9886 11.5189 55.3731 11.6193 55.8466 11.6193C56.3352 11.6193 56.7273 11.5189 57.0227 11.3182C57.322 11.1174 57.4716 10.8693 57.4716 10.5739C57.4716 10.3239 57.375 10.1174 57.1818 9.95455C56.9924 9.79167 56.697 9.66667 56.2955 9.57955L54.8068 9.26705C53.9697 9.0928 53.3504 8.79924 52.9489 8.38636C52.5473 7.9697 52.3485 7.44318 52.3523 6.80682C52.3485 6.26894 52.4943 5.80303 52.7898 5.40909C53.089 5.01136 53.5038 4.70455 54.0341 4.48864C54.5682 4.26894 55.1837 4.15909 55.8807 4.15909C56.9034 4.15909 57.7083 4.37689 58.2955 4.8125C58.8864 5.24811 59.2519 5.83712 59.392 6.57955ZM68.1733 6.57955L66.2983 6.78409C66.2453 6.5947 66.1525 6.41667 66.0199 6.25C65.8911 6.08333 65.7169 5.94886 65.4972 5.84659C65.2775 5.74432 65.0085 5.69318 64.6903 5.69318C64.2623 5.69318 63.9025 5.78598 63.6108 5.97159C63.3229 6.1572 63.1809 6.39773 63.1847 6.69318C63.1809 6.94697 63.2737 7.15341 63.4631 7.3125C63.6563 7.47159 63.9744 7.60227 64.4176 7.70455L65.9062 8.02273C66.732 8.20076 67.3456 8.48295 67.7472 8.86932C68.1525 9.25568 68.357 9.76136 68.3608 10.3864C68.357 10.9356 68.196 11.4205 67.8778 11.8409C67.5634 12.2576 67.1259 12.5833 66.5653 12.8182C66.0047 13.053 65.3608 13.1705 64.6335 13.1705C63.5653 13.1705 62.7055 12.947 62.054 12.5C61.4025 12.0492 61.0142 11.4223 60.8892 10.6193L62.8949 10.4261C62.9858 10.8201 63.179 11.1174 63.4744 11.3182C63.7699 11.5189 64.1544 11.6193 64.6278 11.6193C65.1165 11.6193 65.5085 11.5189 65.804 11.3182C66.1032 11.1174 66.2528 10.8693 66.2528 10.5739C66.2528 10.3239 66.1563 10.1174 65.9631 9.95455C65.7737 9.79167 65.4782 9.66667 65.0767 9.57955L63.5881 9.26705C62.7509 9.0928 62.1316 8.79924 61.7301 8.38636C61.3286 7.9697 61.1297 7.44318 61.1335 6.80682C61.1297 6.26894 61.2756 5.80303 61.571 5.40909C61.8703 5.01136 62.285 4.70455 62.8153 4.48864C63.3494 4.26894 63.965 4.15909 64.6619 4.15909C65.6847 4.15909 66.4896 4.37689 67.0767 4.8125C67.6676 5.24811 68.0331 5.83712 68.1733 6.57955ZM20.1783 24.2898H18.0533C17.9927 23.9413 17.8809 23.6326 17.718 23.3636C17.5552 23.0909 17.3525 22.8598 17.1101 22.6705C16.8677 22.4811 16.5911 22.339 16.2805 22.2443C15.9737 22.1458 15.6423 22.0966 15.2862 22.0966C14.6536 22.0966 14.093 22.2557 13.6044 22.5739C13.1158 22.8883 12.7332 23.3504 12.4567 23.9602C12.1802 24.5663 12.0419 25.3068 12.0419 26.1818C12.0419 27.072 12.1802 27.822 12.4567 28.4318C12.737 29.0379 13.1196 29.4962 13.6044 29.8068C14.093 30.1136 14.6518 30.267 15.2805 30.267C15.629 30.267 15.9548 30.2216 16.2578 30.1307C16.5646 30.036 16.8393 29.8977 17.0817 29.7159C17.3279 29.5341 17.5343 29.3106 17.701 29.0455C17.8714 28.7803 17.9889 28.4773 18.0533 28.1364L20.1783 28.1477C20.0987 28.7008 19.9264 29.2197 19.6612 29.7045C19.3999 30.1894 19.0571 30.6174 18.6328 30.9886C18.2086 31.3561 17.7124 31.6439 17.1442 31.8523C16.576 32.0568 15.9453 32.1591 15.2521 32.1591C14.2294 32.1591 13.3165 31.9223 12.5135 31.4489C11.7105 30.9754 11.0779 30.2917 10.6158 29.3977C10.1536 28.5038 9.92259 27.4318 9.92259 26.1818C9.92259 24.928 10.1555 23.8561 10.6214 22.9659C11.0874 22.072 11.7218 21.3883 12.5249 20.9148C13.3279 20.4413 14.237 20.2045 15.2521 20.2045C15.8999 20.2045 16.5021 20.2955 17.0589 20.4773C17.6158 20.6591 18.112 20.9261 18.5476 21.2784C18.9832 21.6269 19.3411 22.0549 19.6214 22.5625C19.9055 23.0663 20.0911 23.642 20.1783 24.2898ZM25.8246 32.1705C24.9723 32.1705 24.2337 31.983 23.6087 31.608C22.9837 31.233 22.4988 30.7083 22.1541 30.0341C21.8132 29.3598 21.6428 28.572 21.6428 27.6705C21.6428 26.7689 21.8132 25.9792 22.1541 25.3011C22.4988 24.6231 22.9837 24.0966 23.6087 23.7216C24.2337 23.3466 24.9723 23.1591 25.8246 23.1591C26.6768 23.1591 27.4155 23.3466 28.0405 23.7216C28.6655 24.0966 29.1484 24.6231 29.4893 25.3011C29.834 25.9792 30.0064 26.7689 30.0064 27.6705C30.0064 28.572 29.834 29.3598 29.4893 30.0341C29.1484 30.7083 28.6655 31.233 28.0405 31.608C27.4155 31.983 26.6768 32.1705 25.8246 32.1705ZM25.8359 30.5227C26.2981 30.5227 26.6844 30.3958 26.995 30.142C27.3056 29.8845 27.5367 29.5398 27.6882 29.108C27.8435 28.6761 27.9212 28.1951 27.9212 27.6648C27.9212 27.1307 27.8435 26.6477 27.6882 26.2159C27.5367 25.7803 27.3056 25.4337 26.995 25.1761C26.6844 24.9186 26.2981 24.7898 25.8359 24.7898C25.3625 24.7898 24.9685 24.9186 24.6541 25.1761C24.3435 25.4337 24.1106 25.7803 23.9553 26.2159C23.8037 26.6477 23.728 27.1307 23.728 27.6648C23.728 28.1951 23.8037 28.6761 23.9553 29.108C24.1106 29.5398 24.3435 29.8845 24.6541 30.142C24.9685 30.3958 25.3625 30.5227 25.8359 30.5227ZM34.2635 32.1761C33.7105 32.1761 33.2124 32.0777 32.7692 31.8807C32.3298 31.6799 31.9813 31.3845 31.7237 30.9943C31.4699 30.6042 31.343 30.1231 31.343 29.5511C31.343 29.0587 31.4339 28.6515 31.6158 28.3295C31.7976 28.0076 32.0457 27.75 32.3601 27.5568C32.6745 27.3636 33.0286 27.2178 33.4226 27.1193C33.8203 27.017 34.2313 26.9432 34.6555 26.8977C35.1669 26.8447 35.5817 26.7973 35.8999 26.7557C36.218 26.7102 36.4491 26.642 36.593 26.5511C36.7408 26.4564 36.8146 26.3106 36.8146 26.1136V26.0795C36.8146 25.6515 36.6877 25.3201 36.4339 25.0852C36.1802 24.8504 35.8146 24.733 35.3374 24.733C34.8336 24.733 34.4339 24.8428 34.1385 25.0625C33.8468 25.2822 33.6499 25.5417 33.5476 25.8409L31.6271 25.5682C31.7786 25.0379 32.0286 24.5947 32.3771 24.2386C32.7256 23.8788 33.1518 23.6098 33.6555 23.4318C34.1593 23.25 34.7161 23.1591 35.326 23.1591C35.7464 23.1591 36.165 23.2083 36.5817 23.3068C36.9983 23.4053 37.379 23.5682 37.7237 23.7955C38.0684 24.0189 38.3449 24.3239 38.5533 24.7102C38.7654 25.0966 38.8714 25.5795 38.8714 26.1591V32H36.8942V30.8011H36.826C36.701 31.0436 36.5249 31.2708 36.2976 31.483C36.0741 31.6913 35.7919 31.8598 35.451 31.9886C35.1139 32.1136 34.718 32.1761 34.2635 32.1761ZM34.7976 30.6648C35.2105 30.6648 35.5684 30.5833 35.8714 30.4205C36.1745 30.2538 36.4074 30.0341 36.5703 29.7614C36.737 29.4886 36.8203 29.1913 36.8203 28.8693V27.8409C36.7559 27.8939 36.6461 27.9432 36.4908 27.9886C36.3393 28.0341 36.1688 28.0739 35.9794 28.108C35.79 28.142 35.6025 28.1723 35.4169 28.1989C35.2313 28.2254 35.0703 28.2481 34.9339 28.267C34.6271 28.3087 34.3525 28.3769 34.1101 28.4716C33.8677 28.5663 33.6764 28.6989 33.5362 28.8693C33.3961 29.036 33.326 29.2519 33.326 29.517C33.326 29.8958 33.4643 30.1818 33.7408 30.375C34.0173 30.5682 34.3696 30.6648 34.7976 30.6648ZM44.7464 32.1705C43.8752 32.1705 43.1271 31.9792 42.5021 31.5966C41.8809 31.214 41.4018 30.6856 41.0646 30.0114C40.7313 29.3333 40.5646 28.553 40.5646 27.6705C40.5646 26.7841 40.7351 26.0019 41.076 25.3239C41.4169 24.642 41.898 24.1117 42.5192 23.733C43.1442 23.3504 43.8828 23.1591 44.7351 23.1591C45.4434 23.1591 46.0703 23.2898 46.6158 23.5511C47.165 23.8087 47.6025 24.1742 47.9283 24.6477C48.254 25.1174 48.4396 25.6667 48.4851 26.2955H46.5192C46.4396 25.875 46.2502 25.5246 45.951 25.2443C45.6555 24.9602 45.2597 24.8182 44.7635 24.8182C44.343 24.8182 43.9737 24.9318 43.6555 25.1591C43.3374 25.3826 43.0893 25.7045 42.9112 26.125C42.737 26.5455 42.6499 27.0492 42.6499 27.6364C42.6499 28.2311 42.737 28.7424 42.9112 29.1705C43.0855 29.5947 43.3298 29.9223 43.6442 30.1534C43.9624 30.3807 44.3355 30.4943 44.7635 30.4943C45.0665 30.4943 45.3374 30.4375 45.576 30.3239C45.8184 30.2064 46.0211 30.0379 46.1839 29.8182C46.3468 29.5985 46.4586 29.3314 46.5192 29.017H48.4851C48.4358 29.6345 48.254 30.1818 47.9396 30.6591C47.6252 31.1326 47.1972 31.5038 46.6555 31.7727C46.1139 32.0379 45.4775 32.1705 44.7464 32.1705ZM52.2308 26.8864V32H50.174V20.3636H52.1854V24.7557H52.2876C52.4922 24.2633 52.8085 23.875 53.2365 23.5909C53.6683 23.303 54.2176 23.1591 54.8842 23.1591C55.4903 23.1591 56.0187 23.286 56.4695 23.5398C56.9202 23.7936 57.2687 24.1648 57.5149 24.6534C57.7649 25.142 57.8899 25.7386 57.8899 26.4432V32H55.8331V26.7614C55.8331 26.1742 55.6816 25.7178 55.3786 25.392C55.0793 25.0625 54.6589 24.8977 54.1172 24.8977C53.7536 24.8977 53.4278 24.9773 53.1399 25.1364C52.8558 25.2917 52.6323 25.517 52.4695 25.8125C52.3104 26.108 52.2308 26.4659 52.2308 26.8864Z" fill="#FFF083"/>
</svg>
